<?xml version="1.0" encoding="UTF-8"?><svg id="Layer_1" xmlns="http://www.w3.org/2000/svg" viewBox="0 0 908.96 525.93"><defs><style>.cls-1{fill:#03713c;}.cls-2{fill:#fefefe;}.cls-3{fill:#e11114;}</style></defs><path class="cls-2" d="M-58.19-229.02H965.81V794.98H-58.19V-229.02ZM529.26,266.87l-8.32-9-14.17-14.86-16.99-17.99-16.94-17.98c-3.2-3.39-5.87-6.93-9.69-7.14-4.72-.26-8.57.28-11.96,3.61-6.72,6.59-5.81,17.47,1.46,23.65l20.54,26-64.43.07v-127.07c0-3.64-2.6-6.17-4.66-8.4l-7.74-8.43-41.02-41.85-20.67-20.45-35.27-34.63-6.87-6.16c-5.55-6.83-13.49-8.98-22.28-6.32L46.04.02C19.44,3.86,1.64,25.86,0,52.49l.35,422.25c.02,26.14,23.33,50.66,49.49,50.68l309.7.18c25.02.01,49.07-25.46,49.09-51.73l.16-165.06,34.38-.47,30.97-.24-21.21,26.02c-5.4,6.62-8.91,14.79-3.79,22.6,2.9,4.42,7.98,5.7,13.11,5.42,4.12-.23,7.93-2.88,11.27-6.51l12.9-14.03,8.62-9.46,34.18-37.75c4.08-4.5,7.07-8.03,6.86-13.96-.19-5.26-2.53-8.92-6.82-13.56ZM583.41,525.89h269.24c28.51,1.19,52.16-18.88,56.11-47.1l.2-212.47-.05-25.51-.06-193.61c-3.94-25.81-23.29-44.52-49.28-47.19h-276.56c-26.2,2.79-45.54,22.17-49.14,48.34l-.06,193.09,11.11,12.34c6.97,7.73,10.16,16.87,10.05,27.22-.12,11.54-5.56,20.64-13.29,28.91l-7.89,8.45.09,159.26c3.47,26.27,22.66,45.73,49.52,48.28Z"/><path class="cls-3" d="M529.26,266.87c4.28,4.64,6.63,8.29,6.82,13.56.21,5.93-2.78,9.46-6.86,13.96l-34.18,37.75-8.62,9.46-12.9,14.03c-3.34,3.63-7.15,6.28-11.27,6.51-5.13.28-10.21-1-13.11-5.42-5.12-7.82-1.61-15.98,3.79-22.6l21.21-26.02-30.97.24-34.38.47-.16,165.06c-.03,26.26-24.07,51.74-49.09,51.73l-309.7-.18c-26.16-.02-49.47-24.54-49.49-50.68L0,52.49C1.64,25.86,19.44,3.86,46.04.02l224.22-.08c8.8-2.66,16.74-.51,22.28,6.32l6.87,6.16,35.27,34.63,20.67,20.45,41.02,41.85,7.74,8.43c2.05,2.23,4.66,4.76,4.66,8.4v127.07s64.43-.07,64.43-.07l-20.54-26c-7.26-6.18-8.18-17.06-1.46-23.65,3.4-3.33,7.24-3.87,11.96-3.61,3.81.21,6.49,3.74,9.69,7.14l16.94,17.98,16.99,17.99,14.17,14.86,8.32,9ZM337.07,295.53l-.14-27.54c.4-8.41,6.77-14.59,15.11-14.64l27.79-.18v-107.44s-75.83-.08-75.83-.08c-21.96-1.46-39.05-17.76-41.12-39.73l-.08-75.29-214.8.49c-11.65.03-18.8,13.16-18.85,22.87l-.22,41.24-.11,377.13c1.35,11.67,7.72,20.32,19.21,22.75l312.61-.26c10.35,0,16.55-10.3,19.16-19.22l.05-166.66-29.97-.16c-6.89-.04-12.77-6.05-12.81-13.28ZM309.82,117.05l49.86-.51-69.77-70.03v52.19c.84,10.84,9.02,18.68,19.9,18.35Z"/><path class="cls-1" d="M583.41,525.89c-26.86-2.55-46.04-22.01-49.52-48.28l-.09-159.26,7.89-8.45c7.73-8.27,13.17-17.36,13.29-28.91.11-10.35-3.08-19.49-10.05-27.22l-11.11-12.34.06-193.09c3.6-26.16,22.93-45.55,49.14-48.35h276.56c25.99,2.68,45.34,21.39,49.28,47.2l.06,193.61.05,25.51-.2,212.47c-3.95,28.22-27.6,48.29-56.11,47.1h-269.24ZM863.13,494.67c9.55-3.5,17.59-12.06,17.59-22.96l.17-415.53c0-14.42-8.99-25.07-23.56-27.22l-271.06.28c-14.46.01-23.91,12.49-23.91,25.92l.14,416.65c0,12.83,10.84,23.55,23.44,23.57l246.7.26,30.48-.95Z"/><path class="cls-2" d="M337.07,295.53c.04,7.23,5.92,13.24,12.81,13.28l29.97.16-.05,166.66c-2.6,8.91-8.81,19.21-19.16,19.22l-312.61.26c-11.49-2.43-17.86-11.08-19.21-22.75l.11-377.13.22-41.24c.05-9.71,7.2-22.84,18.85-22.87l214.8-.49.08,75.29c2.07,21.98,19.16,38.27,41.12,39.73l75.83.08v107.44s-27.79.18-27.79.18c-8.34.05-14.71,6.23-15.11,14.64l.14,27.54ZM93.83,185.46c14.07-.19,24.39-10.9,26.24-24.33,1.37-9.98-.2-19.77-7.09-27.38-5.1-4.98-11.87-8.44-19.3-8.49l-37.87-.25v92.91s21.97.04,21.97.04l.22-32.29,15.83-.21ZM201.59,184.4c2.32-12.48,1.47-24.15-2.81-35.39-5.36-13.58-17.51-23.43-32.3-23.6l-36.67-.41v92.96s36.63-.43,36.63-.43c18.45-1.48,32.59-14.45,35.16-33.14ZM258.53,162.41l-24.47.45-.18-18.43,24.93-.49v-18.95s-47,0-47,0l.04,92.86,21.97.07v-36.94s25-.02,25-.02l-.28-18.57ZM276.84,286.84c7.5-1.67,10.93-6.83,10.78-13.42-.11-5.25-4.1-12.29-11.02-12.29l-211.51.06c-6.94,0-10.5,7.9-10.34,13.24.15,5.05,3.75,12.24,10.39,12.24l211.7.17ZM274.08,348.74c8.3,0,13.18-5.49,13.51-12.4.27-5.7-3.74-13.25-10.95-13.25l-210.66-.09c-6.68,0-10.38,5.14-11.12,11.08-.87,6.96,3.42,14.57,11.28,14.57l207.93.08ZM249,386.4l-115.13-.51-70.01.17c-6.69.02-9.72,8.37-9.04,13.62,1,7.63,5.66,11.41,13.13,11.4l178.68-.27c6.15,0,9.74-6.99,10.23-11.48.45-4.03-1.7-12.89-7.86-12.92Z"/><path class="cls-2" d="M309.82,117.05c-10.88.33-19.07-7.51-19.91-18.35v-52.19s69.78,70.03,69.78,70.03l-49.86.51Z"/><path class="cls-2" d="M863.13,494.67l-30.48.95-246.7-.26c-12.6-.01-23.43-10.73-23.44-23.57l-.14-416.65c0-13.43,9.45-25.91,23.91-25.92l271.06-.28c14.56,2.15,23.56,12.8,23.56,27.22l-.17,415.53c0,10.9-8.04,19.46-17.59,22.96ZM771,152.77c11.53-4.03,16.75-14.32,15.94-25.95-.66-9.52-6.96-17.32-16.24-19.85l-19.47-5.31c-4.27-1.16-6.99-3.99-6.56-8.12.36-3.53,3.41-5.75,7.25-6.43,7.23-1.29,13.31,2.02,15.45,9.3l18.28-3.8c-1.68-9.83-7.38-17.04-16.31-20.21-10.26-3.64-21.99-3.54-31.65,1.31-9.16,4.6-13.32,13.51-13.13,23.27s4.84,17.84,14.05,20.36l21.77,5.98c3.96,1.09,6.91,3.49,6.84,7.17-.07,3.21-2.15,6.1-5.53,7.38-8.81,3.34-18.65-.57-20.53-10.18l-18.45,4.86c4.04,22.04,28.71,27.07,48.29,20.23ZM653.31,153.7l-22.68-41.66,22.05-40.93-21,.23-12.63,26.15-13.26-26.39-21.94-.02,22.33,41.12-22.85,41.64,20.43.1,14.08-26.86,14.15,26.85,21.32-.24ZM715.92,136.95l-31.03-.14-.09-65.7h-20.71s-.05,82.89-.05,82.89h52.45s-.58-17.05-.58-17.05ZM862.45,153.89l-22.83-41.86,21.86-40.8-20.59-.12-12.82,26.46-13.3-26.48h-22.01s22.37,41.13,22.37,41.13l-23.11,41.69,20.88-.22,13.93-26.59,13.73,26.94,21.89-.13ZM849.61,462.69c5.78-1.27,11.13-3.98,11.13-9.94l.05-254.56c0-5.38-4.77-10.15-10.23-10.15h-257.49c-4.72,0-10.18,4.29-10.18,9.14v255.62c0,5.67,5.93,9.78,11.54,9.79l255.18.11Z"/><path class="cls-3" d="M274.08,348.74l-207.93-.08c-7.86,0-12.15-7.61-11.28-14.57.74-5.94,4.44-11.09,11.12-11.08l210.66.09c7.21,0,11.22,7.55,10.95,13.25-.33,6.92-5.21,12.41-13.51,12.4Z"/><path class="cls-3" d="M276.84,286.84l-211.7-.17c-6.64,0-10.24-7.19-10.39-12.24-.16-5.35,3.41-13.24,10.34-13.24l211.51-.06c6.92,0,10.9,7.04,11.02,12.29.14,6.59-3.28,11.75-10.78,13.42Z"/><path class="cls-3" d="M249,386.4c6.16.03,8.31,8.89,7.86,12.92-.5,4.49-4.08,11.47-10.23,11.48l-178.68.27c-7.46.01-12.13-3.77-13.13-11.4-.69-5.25,2.35-13.6,9.04-13.62l70.01-.17,115.13.51Z"/><path class="cls-3" d="M201.59,184.4c-2.56,18.69-16.7,31.66-35.16,33.14l-36.63.43v-92.96s36.68.41,36.68.41c14.79.16,26.94,10.02,32.3,23.6,4.28,11.24,5.13,22.91,2.81,35.39ZM169.18,146.62c-5.54-3.15-11.92-2.94-18.36-2.45v55.44c7.69,1.1,17.05.65,23.02-5.55,10.14-10.53,10.85-38.62-4.65-47.44Z"/><path class="cls-3" d="M93.83,185.46l-15.83.21-.22,32.29-21.97-.04v-92.91s37.87.25,37.87.25c7.44.05,14.2,3.51,19.3,8.49,6.89,7.61,8.46,17.4,7.09,27.38-1.84,13.43-12.17,24.14-26.24,24.33ZM92.07,166.7c6.66-1.45,8.49-7.39,7.9-13.17-.52-5.13-5.17-9.43-11.26-9.45l-10.9-.05.03,23.07c4.63.09,9.41.66,14.23-.39Z"/><polygon class="cls-3" points="258.53 162.41 258.81 180.97 233.81 180.99 233.81 217.93 211.85 217.86 211.8 125 258.79 125 258.81 143.95 233.88 144.43 234.06 162.86 258.53 162.41"/><path class="cls-1" d="M849.61,462.69l-255.18-.11c-5.61,0-11.55-4.12-11.55-9.79v-255.62c0-4.84,5.47-9.14,10.19-9.14h257.49c5.47,0,10.23,4.78,10.23,10.16l-.05,254.56c0,5.96-5.35,8.67-11.13,9.94ZM599.47,205.98v50h72.43v-50h-72.43ZM757.81,205.98h-70v50h70v-50ZM844.81,205.98h-71v50h71v-50ZM671.91,269.98h-72.41v49h72.41v-49ZM757.81,269.98h-70v49h70v-49ZM844.81,269.98h-71v49h71v-49ZM599.47,332.98v48h72.43v-48h-72.43ZM757.81,332.98h-70v48h70v-48ZM844.81,332.98h-71v48h71v-48ZM671.9,395.82h-72.39s0,49.25,0,49.25h72.39s0-49.25,0-49.25ZM757.81,395.83h-70v49.24h70v-49.24ZM844.81,395.81h-71v49.24h71v-49.24Z"/><path class="cls-1" d="M771,152.77c-19.59,6.84-44.25,1.81-48.29-20.23l18.45-4.86c1.88,9.61,11.73,13.52,20.53,10.18,3.38-1.28,5.46-4.17,5.53-7.38.08-3.68-2.88-6.08-6.84-7.17l-21.77-5.98c-9.21-2.53-13.87-10.87-14.05-20.36s3.97-18.67,13.13-23.27c9.66-4.85,21.4-4.95,31.65-1.31,8.93,3.17,14.63,10.37,16.31,20.21l-18.28,3.8c-2.15-7.28-8.22-10.59-15.45-9.3-3.84.68-6.89,2.9-7.25,6.43-.42,4.13,2.3,6.96,6.56,8.12l19.47,5.31c9.28,2.53,15.58,10.34,16.24,19.85.81,11.64-4.41,21.93-15.94,25.95Z"/><polygon class="cls-1" points="862.45 153.89 840.55 154.02 826.82 127.09 812.9 153.68 792.02 153.9 815.12 112.22 792.75 71.09 814.76 71.09 828.06 97.57 840.88 71.11 861.48 71.23 839.62 112.03 862.45 153.89"/><polygon class="cls-1" points="653.31 153.7 631.98 153.94 617.83 127.08 603.75 153.94 583.33 153.84 606.18 112.21 583.84 71.08 605.78 71.11 619.04 97.49 631.67 71.34 652.67 71.11 630.62 112.03 653.31 153.7"/><polygon class="cls-1" points="715.92 136.95 716.5 153.99 664.05 153.99 664.1 71.11 684.81 71.1 684.89 136.8 715.92 136.95"/><path class="cls-2" d="M169.18,146.62c15.5,8.82,14.79,36.91,4.65,47.44-5.97,6.2-15.33,6.65-23.03,5.55v-55.44c6.46-.49,12.83-.7,18.38,2.45Z"/><path class="cls-2" d="M92.07,166.7c-4.83,1.05-9.6.48-14.23.39l-.03-23.07,10.9.05c6.09.03,10.74,4.32,11.26,9.45.59,5.79-1.25,11.72-7.9,13.17Z"/><rect class="cls-2" x="599.47" y="205.98" width="72.43" height="50"/><rect class="cls-2" x="773.81" y="205.98" width="71" height="50"/><rect class="cls-2" x="599.5" y="269.98" width="72.41" height="49"/><rect class="cls-2" x="599.51" y="395.83" width="72.39" height="49.24"/><rect class="cls-2" x="687.81" y="205.98" width="70" height="50"/><rect class="cls-2" x="773.81" y="395.81" width="71" height="49.24"/><rect class="cls-2" x="773.81" y="269.98" width="71" height="49"/><rect class="cls-2" x="599.47" y="332.98" width="72.43" height="48"/><rect class="cls-2" x="687.81" y="269.98" width="70" height="49"/><rect class="cls-2" x="687.81" y="395.83" width="70" height="49.24"/><rect class="cls-2" x="773.81" y="332.98" width="71" height="48"/><rect class="cls-2" x="687.81" y="332.98" width="70" height="48"/></svg>